<?xml version="1.0" encoding="utf-8"?>
<!-- Generator: Adobe Illustrator 18.0.0, SVG Export Plug-In . SVG Version: 6.00 Build 0)  -->
<!DOCTYPE svg PUBLIC "-//W3C//DTD SVG 1.1//EN" "http://www.w3.org/Graphics/SVG/1.1/DTD/svg11.dtd">
<svg version="1.1" id="Layer_1" xmlns="http://www.w3.org/2000/svg" xmlns:xlink="http://www.w3.org/1999/xlink" x="0px" y="0px"
	 viewBox="0 0 612 792" enable-background="new 0 0 612 792" xml:space="preserve">
<g>
	<path fill="#FEFEFE" d="M-12.5,371.2c0-117.4,0-234.7-0.1-352.1c0-2.4,0.5-2.8,2.8-2.8c210.4,0.1,421,0.1,631.4,0
		c2.4,0,2.8,0.5,2.8,2.8c-0.1,235-0.1,469.9,0,704.9c0,2.4-0.5,2.8-2.8,2.8c-210.4-0.1-421-0.1-631.4,0c-2.4,0-2.8-0.5-2.8-2.8
		C-12.5,606.4-12.5,488.8-12.5,371.2z M590,317.8c0.1,0,0.2,0,0.3,0c0-24.3,0.4-48.7-0.2-72.9c-0.3-9.4,3-20.4-8.3-26.9
		c-30.5-17.5-60.8-35.2-91.3-52.7c-24.9-14.3-49.8-28.5-74.7-42.7c-22.6-13-45.3-25.6-67.7-39c-12.3-7.3-25.6-13.1-37.4-21.6
		c-6.3-4.6-10.8,3.5-15.6,6.2c-33.5,18.7-66.5,38.3-99.9,57.3c-26.3,14.8-52.8,29.3-79.1,44.2c-24.5,13.9-48.9,27.9-73.1,42.6
		c-6,3.6-15,5.1-16.2,14.1c-1,8.2-1.4,16.6-1.4,25c-0.1,43.5-0.2,87.1-0.1,130.7c0.1,45.3,0.1,90.5,1.2,135.7
		c0.2,8.9-5.9,19.8,6.9,26.9c44.4,24.3,88.3,49.4,132.3,74.2c42.6,24.1,85,48.5,127.9,72c5.5,3,9.8,11.4,19.8,5.7
		c48.5-28,97.5-55.2,146.4-82.7c39.4-22.2,79-44.3,118.5-66.5c4.9-2.8,10.8-3.8,10.7-12.3c-0.3-30.9,0.6-61.8,0.7-92.7
		C590.2,400.8,590,359.3,590,317.8z"/>
	<path fill="#060606" d="M590,317.8c0,41.5,0.1,82.9-0.1,124.4c-0.1,30.9-1,61.8-0.7,92.7c0.1,8.5-5.9,9.5-10.7,12.3
		c-39.4,22.3-79,44.4-118.5,66.5c-48.9,27.4-97.9,54.7-146.4,82.7c-9.9,5.8-14.3-2.7-19.8-5.7c-42.8-23.4-85.3-48-127.8-72
		c-44.1-24.9-88-49.9-132.3-74.2c-12.8-7-6.7-18-6.9-26.9c-1.1-45.2-1.1-90.5-1.2-135.7c-0.1-43.5-0.1-87.1,0.1-130.7
		c0-8.3,0.3-16.8,1.4-25c1.2-8.9,10.1-10.4,16.2-14.1c24.1-14.6,48.6-28.6,73.1-42.6c26.3-14.8,52.8-29.3,79.1-44.2
		c33.3-18.9,66.4-38.5,99.9-57.2c4.8-2.7,9.3-10.7,15.6-6.2c11.8,8.5,25,14.3,37.4,21.6c22.3,13.4,45.1,26.1,67.7,39
		c24.9,14.3,49.8,28.4,74.6,42.8c30.4,17.5,60.8,35.3,91.3,52.7c11.3,6.5,8.1,17.5,8.3,26.9c0.6,24.3,0.2,48.6,0.2,72.9
		C590.2,317.8,590.2,317.8,590,317.8z M405.7,215.8c-1-0.7-1.7-1.1-2.3-1.5c-30.2-16.6-60.4-33.1-90.5-49.8c-3.6-2-6.4-2.3-10.2-0.2
		c-29.9,16.3-60,32.4-90,48.6c-0.7,0.3-1.2,0.9-1.9,1.4c0.7,0.6,1.4,1.1,2.1,1.5c26.5,15,53,30.4,79.9,44.8
		c5.9,3.2,11.1,11.4,19.8,6.6c27.8-15.2,55.5-30.5,83.3-45.7C399.1,219.7,402.2,217.8,405.7,215.8z M206.5,216
		c-0.4,0.2-0.9,0.4-1.4,0.7c-30.7,16.5-61.4,33.1-92.2,49.5c-1.7,0.9-2.1,1.2-0.1,2.4c18.2,10.3,36.3,20.7,54.5,31
		c10.9,6.2,21.6,12.7,32.7,18.4c3.6,1.9,7.1,7.1,11.4,4.7c30.5-16.4,60.7-33.3,91.1-50c2.2-1.2,1.7-1.7-0.1-2.8
		c-22.5-12.7-45-25.4-67.5-38.1C225.5,226.6,216.1,221.3,206.5,216z M508.7,325.2c0-16.8-0.1-33.5,0.1-50.3c0-3-1.1-3-3.1-1.9
		c-30.3,17.2-60.7,34.4-90.9,51.8c-1.6,0.9-4.5,1-4.5,4.2c0.1,32.9,0.1,65.9,0,98.8c0,1.5,0.1,2.3,1.8,1.4c30-15.9,60-32,90.2-47.7
		c5.4-2.8,6.7-6.2,6.5-12C508.4,354.8,508.7,339.9,508.7,325.2z M107.4,324.1c0,16.7,0.1,33.5-0.1,50.2c0,2.1,0.6,3,2.5,4.1
		c31.3,16.6,62.6,33.3,93.8,50c1.9,1,2.1,0.5,2.1-1.4c-0.1-32.6,0-65.4-0.1-98c0-1-0.6-2.4-1.3-2.8c-6.3-3.6-12.8-6.9-19-10.5
		c-23.4-13.4-46.8-27-70.2-40.4c-2.4-1.3-4.9-2.4-7.3-3.5c-0.1,2.6-0.5,5.3-0.5,8C107.4,294.5,107.4,309.3,107.4,324.1z M450,299.8
		c3.5,1.5,3-1.9,4.6-2.7c15.1-8.3,30-17,45-25.5c1-0.6,1.9-1.2,2.8-1.8c-1-0.8-1.9-1.9-3-2.5c-24.5-13.7-48.9-27.5-73.8-40.6
		c-5.7-3-11.2-10.8-18.1-7.2c-30.8,16.2-61.1,33.2-91.6,50c-1.1,0.6-2.1,1.5-3.2,2.2c1.1,0.8,2.2,1.5,3.4,2.2
		c24.5,13.9,48.9,27.9,73.6,41.5c5.8,3.1,11,9.5,17.7,8.1c5.8-1.2,11-5.8,16.5-8.9C432.7,309.6,441.6,304.5,450,299.8z M508.7,433.5
		c0-16.3,0-32.6-0.1-48.9c0-0.5,1.9-3.7-1.8-1.8c-29.7,15.8-59.6,31.4-89.3,47.3c-2.6,1.4-7.3,1.2-7.3,6.3c0.1,32.2,0.1,64.4,0,96.6
		c0,3,0.6,3.1,3.1,1.8c30-15.8,60.1-31.5,90.3-47.2c3.7-1.9,5.3-4.1,5.3-8.6C508.5,464,508.7,448.8,508.7,433.5z M205.8,484.3
		c0-16.2,0-32.3,0-48.5c0-1.6-0.1-2.7-1.8-3.5c-31.3-16.5-62.7-33.1-94-49.7c-2-1.1-2.7-1.5-2.7,1.5c0.2,32.4,0.1,64.8,0.1,97.3
		c0,1.7,0.1,2.8,1.9,3.9c31.3,16.4,62.6,32.9,93.8,49.4c2.3,1.2,2.7,0.7,2.7-1.8C205.8,516.6,205.8,500.5,205.8,484.3z M309.6,380
		c3.3-2.4,5.7-4.4,8.4-5.9c27.3-15.4,54.7-30.7,82.1-46c2.6-1.5,1.6-2-0.3-3c-29.3-16.4-58.6-32.9-87.8-49.5
		c-2.1-1.2-3.7-2.2-6.4-0.7c-29.5,16.4-59.1,32.6-88.6,48.9c-1,0.6-1.8,1.3-2.7,2c0.8,0.7,1.7,1.5,2.6,2c21.1,12,42.1,24.1,63.3,36
		C289.8,369.2,299.7,374.5,309.6,380z M406.8,487.3c0-16.2-0.1-32.3,0.1-48.5c0-2.5-0.3-2.8-2.6-1.6c-25.5,13.5-51.2,26.7-76.5,40.6
		c-7.6,4.2-19.1,5.1-16.7,19.6c1.9,12.1,1.3,24.7,0.5,37.1c-1.2,17.3-0.8,34.7-0.8,51.9c0,1.2,0.1,2.1,1.9,1.2
		c29.1-15.3,58.2-30.6,87.4-45.7c5.1-2.6,7.1-5.5,6.9-11.5C406.5,516.1,406.8,501.7,406.8,487.3z M209.3,486.4
		c0,14.3,0.5,28.6-0.2,42.9c-0.3,6.7,2.3,9.7,7.8,12.5c28.8,14.8,57.6,29.9,86.3,45c2.8,1.5,1.9-0.1,1.9-1.5
		c0-30.4,0.2-60.9-0.1-91.3c-0.1-3,1.7-7.3-3-9.8c-30.1-15.8-60.1-31.7-90.1-47.8c-2.1-1.1-2.5-1.1-2.5,1.5
		C209.3,454,209.3,470.2,209.3,486.4z M406.8,381.2c0-16,0-32.1,0-48.1c0-1.8,0.6-3.5-2.6-1.8c-27.7,15.7-55.4,31.1-83,46.7
		c-3.7,2.1-9.4,2.5-9.4,8.6c-0.2,28.6,0,57.3-0.6,85.8c-0.2,9.1,1.5,10,9.4,5.6c26.7-14.7,53.7-28.8,80.7-42.9c4.4-2.3,6-4.9,5.8-10
		C406.5,410.5,406.8,395.9,406.8,381.2z M304.2,387.3c0.3-6.4-5.3-7.6-9.6-10c-27.7-15.5-55.5-30.8-82.9-46.7
		c-3.8-2.2-2.5-0.1-2.5,1.5c0,32.2-0.1,64.5,0.1,96.7c0,1.1,0.8,2.7,1.6,3.2c30.3,16.2,60.7,32.2,90.9,48.2c2.7,1.5,3.2,0.8,3.1-1.9
		c-0.3-12.6-0.7-25.2-0.8-37.8C304.2,422.8,304.2,405,304.2,387.3z M406.8,591.1c0-15.1-0.1-30.2,0.1-45.3c0-3.1-0.8-3-3.1-1.9
		c-28.6,15-57.3,29.8-85.9,44.9c-3.1,1.7-7.4,2.3-7.3,7.8c0.2,14.4,0,28.8-0.2,43.2c-0.2,15.9-0.7,31.7-0.9,47.6
		c0,2.3-1.8,7.6,3.8,4.5c27.4-15.1,54.4-30.7,81.9-45.7c8.5-4.6,13.2-9.8,12-20.6C405.8,614.3,406.8,602.6,406.8,591.1z
		 M306.3,591.5c-0.3,0.6-1.7,0.1-3-0.7c-30.4-15.9-60.7-31.8-91-47.7c-1.5-0.8-3-2.3-3,1.4c0.1,30.4,0.1,60.7,0.1,91.2
		c0,1.6,0.3,2.6,1.9,3.5c30.8,17.4,61.5,34.9,92.3,52.4c2.6,1.5,2.9-0.4,2.9-2.4c0-8.1-0.1-16.3-0.1-24.4
		C306.3,641.2,306.3,617.7,306.3,591.5z M205.8,587.5c0-15,0-30,0-45c0-1.5,0.2-2.7-1.7-3.7c-31.5-16.3-62.9-32.7-94.3-49.2
		c-2.2-1.2-2.5-0.8-2.5,1.5c0.1,29,0,57.9,0.1,86.9c0,1,0.4,2.5,1.1,2.9c31.5,18,62.9,35.8,94.5,53.7c2.3,1.3,2.8,0.7,2.8-1.8
		C205.8,617.7,205.8,602.6,205.8,587.5z M410.3,588.2c0,14.6,0,29.1,0,43.7c0,1.3,0.2,2.7,0.3,4c1.5-0.5,3-0.8,4.4-1.6
		c26.5-14.9,52.8-30.2,79.5-44.7c9.7-5.3,15.3-10.5,14.6-23.3c-1.5-24.4-0.5-48.9-0.3-73.4c0-3.7-0.8-3.5-3.6-2.1
		c-27.5,14.4-54.8,29.3-82.7,42.8c-9.7,4.7-13.5,10.2-12.4,21C411.2,565.8,410.3,577,410.3,588.2z M489.3,169.7
		c-0.6-0.6-1.1-1.1-1.7-1.4c-27.9-15.7-55.7-31.6-83.7-47c-3.7-2-7.5-7.1-12.1-4.7c-26.2,13.7-52.1,27.9-78.1,41.9
		c-0.6,0.3-1.2,0.9-1.8,1.3c0.7,0.5,1.4,1,2.1,1.4c27.6,15.2,55.2,30.5,82.9,45.7c4.4,2.4,10.7,7.2,13.5,5.8
		c23.3-11.6,46-24.5,68.8-37.1C482.6,173.8,485.8,171.8,489.3,169.7z M222.9,115.2c-10.4,5.6-20.7,10.9-30.6,16.5
		c-20.1,11.3-40,22.8-59.9,34.2c-0.9,0.6-1.6,1.5-2.4,2.1c0.8,0.7,1.5,1.5,2.3,2c19.1,10.8,37.9,22,57.3,32.2
		c6.2,3.3,12.4,11.6,19.4,8.1c31.3-15.8,62-32.9,93-49.5c1.9-1,1.6-1.5-0.1-2.4c-18.1-9.9-36.3-20-54.3-29.9
		C239.3,124.1,231,119.6,222.9,115.2z M583.7,224.1c-6.4-3.7-12.1-7-17.7-10.3c-20-11.5-40-23.2-60.3-34.3
		c-4.8-2.6-9.2-9.4-15.4-6.2c-24.1,12.8-47.8,26.2-71.7,39.4c-1.6,0.9-3.1,1.8-4.6,2.7c1.6,1,3,2.3,4.7,3.2
		c22.9,12.7,45.9,25.5,69,38c10.3,5.5,20,14.8,32.6,3.5c9.5-8.5,22.8-11.2,32.2-20.9c3.3-3.4,11.8-4.6,17.5-7.6
		C574.4,229.4,578.5,227,583.7,224.1z M202.7,214.1c-0.9-0.6-1.5-1.1-2.1-1.5c-23.8-13.4-47.7-26.8-71.5-40.3
		c-2.8-1.6-4.9-2.2-8-0.2C111,178.7,100.8,185,90.3,191c-18.2,10.3-36.5,20.3-54.8,30.4c-2.4,1.3-2.6,2.3,0.1,4.1
		c9.9,6.6,21.8,9.3,31.5,16.6c7.8,5.9,16.7,10.5,25.4,15c5.4,2.8,10.4,10,16.8,6.7c27.4-13.9,54.3-28.6,81.4-43.1
		C194.6,218.7,198.5,216.5,202.7,214.1z M512.2,322.7c0,16.7,0,33.5,0.1,50.2c0,1-1.2,3.7,1.9,2.1c22.3-11.8,44.5-23.6,66.8-35.5
		c2.6-1.4,5.1-2.4,5-6.3c-0.3-10.3-0.2-20.7-0.1-31c0.1-23.8,0.3-47.8,0.6-71.6c0-1-0.3-1.9-0.6-2.9c-0.8,0.3-1.8,0.4-2.5,0.8
		c-18.9,10.9-37.5,22-56.5,32.5c-9.8,5.4-17.1,10.7-15,24.3C513.7,297.6,512.2,310.3,512.2,322.7z M104,323c0-14.1-1-28.3,0.3-42.2
		c1-10.5-4.7-14.3-12-18.5c-14.9-8.4-29.7-17-44.6-25.5c-5.7-3.3-11.4-6.5-17.1-9.8c-0.1,5.5-0.3,11-0.4,16.5c0,1.1-0.3,2.2-0.3,3.4
		c0.1,24-0.1,48,0.6,72c0.2,6-3.7,14.6,2.4,18.1c22,12.7,44.7,24.1,67,36.1c3.3,1.8,4.3,2.4,4.2-2.2C103.8,354.9,104,339,104,323z
		 M104,430.5c0-16.2,0-32.3,0-48.5c0-1.2,0.6-2.5-1.2-3.5c-23.4-12.3-46.8-24.7-70.1-37.2c-2-1-2.1-0.4-2.1,1.5
		c0.3,28.8,0.3,57.7,0.9,86.6c0.1,5.3-2.9,12.8,2.4,15.7c22.2,12.5,44.9,24,67.4,35.9c2.5,1.3,2.8,0.8,2.8-1.8
		C103.9,463,104,446.7,104,430.5z M512.2,431.3c0,16.2,0,32.4,0,48.5c0,2.3,0,3.5,2.8,2c21-11.1,42.1-21.9,63-33.1
		c2.3-1.2,6.4-1.2,6.4-5.5c0.4-33.1,0.8-66.3,1.4-99.5c0.1-3.6-1.7-1.8-2.8-1.2c-21.3,11.2-42.6,22.3-63.8,33.8
		c-2.8,1.5-7.3,1.8-7.1,7.6C512.5,399.6,512.2,415.5,512.2,431.3z M389.6,113.7c-0.6-0.4-0.8-0.8-1.2-1
		c-23.5-13.7-46.9-27.5-70.7-40.7c-3.8-2.1-7.1-8.2-12.3-5.3c-24.9,14.2-49.4,28.8-74.1,43.3c-1.5,0.9-3,2-4.4,3
		c1.7,1,3.3,2.1,4.9,3c20.1,11.1,40,22.5,60.4,33.1c5.8,3,11.3,10.6,18.4,7c22.7-11.4,44.8-23.8,67.1-35.8
		C381.6,118.2,385.5,116,389.6,113.7z M104,532.3c0-14.4,0-28.8,0-43.3c0-1.5,0.1-2.7-1.7-3.6c-22.8-11.8-45.6-23.7-68.3-35.6
		c-2.8-1.5-2.1,0.3-2.1,1.9c0,19.8-0.8,39.5,0.3,59.2c0.5,8.2-4.7,18,4.2,25c1.9,1.5-1.4,3.8,2.3,5.8C58,552,77.1,563.3,96.3,574.2
		c2.4,1.3,4.9,2.4,7.3,3.5c0.1-1.2,0.4-2.4,0.4-3.6C104,560.2,104,546.2,104,532.3z M512.2,532.7c0,14.4,0.1,28.8-0.1,43.3
		c0,2.8,0.6,3,2.8,1.6c10.6-6.1,22-11,31.7-18.3c10.5-8,25.7-9.1,32.7-22.4c1.2-2.2,5.1-2.1,5.1-6.3c-0.3-26.3-0.2-52.5-0.1-78.7
		c0-3-0.8-2.1-2.4-1.2c-18.7,9.8-37.6,19.4-56.2,29.3c-7.1,3.7-15.7,5.7-13.9,17.8C513.5,509.2,512.2,521.1,512.2,532.7z"/>
	<path fill="#3F48CB" d="M405.7,215.8c-3.5,2-6.6,3.9-9.7,5.6c-27.7,15.2-55.5,30.6-83.3,45.7c-8.7,4.8-13.9-3.4-19.8-6.6
		c-26.9-14.5-53.3-29.8-79.9-44.8c-0.8-0.4-1.5-1-2.1-1.5c0.6-0.5,1.2-1,1.9-1.4c30-16.2,60-32.2,90-48.6c3.8-2.1,6.6-1.8,10.2,0.2
		c30.1,16.7,60.3,33.2,90.5,49.8C404,214.7,404.7,215.1,405.7,215.8z"/>
	<path fill="#FEFEFE" d="M206.5,216c9.5,5.3,19,10.6,28.4,15.9c22.5,12.7,45,25.4,67.5,38.1c1.9,1,2.4,1.5,0.1,2.8
		c-30.4,16.6-60.6,33.5-91.1,49.9c-4.4,2.4-7.8-2.8-11.4-4.7c-11.1-5.8-21.8-12.3-32.7-18.4c-18.2-10.3-36.3-20.7-54.5-31
		c-2-1.1-1.5-1.5,0.1-2.4c30.7-16.5,61.4-33,92.2-49.5C205.6,216.4,206.1,216.2,206.5,216z"/>
	<path fill="#22B04C" d="M508.7,325.2c0,14.8-0.3,29.6,0.1,44.4c0.2,5.8-1.2,9.1-6.5,12c-30.2,15.7-60.2,31.7-90.2,47.7
		c-1.7,0.9-1.8,0.1-1.8-1.4c0-32.9,0.1-65.9,0-98.8c0-3.3,2.9-3.3,4.5-4.2c30.2-17.4,60.6-34.5,90.9-51.8c2-1.1,3.1-1.2,3.1,1.9
		C508.6,291.7,508.7,308.4,508.7,325.2z"/>
	<path fill="#FE7F27" d="M107.4,324.1c0-14.8,0-29.5,0-44.4c0-2.6,0.3-5.3,0.5-8c2.4,1.2,5,2.1,7.3,3.5c23.4,13.4,46.8,27,70.2,40.4
		c6.2,3.6,12.7,6.9,19,10.5c0.8,0.4,1.3,1.9,1.3,2.8c0.1,32.6,0.1,65.4,0.1,98c0,1.9-0.2,2.4-2.1,1.4c-31.3-16.7-62.5-33.4-93.8-50
		c-1.9-1-2.6-2-2.5-4.1C107.5,357.5,107.4,340.8,107.4,324.1z"/>
	<path fill="#3F48CB" d="M450,299.8c-8.4,4.8-17.2,9.8-26.1,14.8c-5.5,3.1-10.6,7.8-16.5,8.9c-6.7,1.3-12-5-17.7-8.1
		c-24.7-13.6-49.1-27.6-73.6-41.5c-1.2-0.7-2.2-1.5-3.4-2.2c1-0.8,2.1-1.6,3.2-2.2c30.5-16.8,60.8-33.8,91.6-50
		c6.9-3.7,12.4,4.2,18.1,7.2c24.8,13.1,49.2,27,73.8,40.6c1.1,0.6,2,1.7,3,2.5c-1,0.6-1.9,1.2-2.8,1.8c-15,8.6-29.9,17.2-45,25.5
		C453.1,297.9,453.5,301.3,450,299.8z"/>
	<path fill="#EC1C24" d="M508.7,433.5c0,15.2-0.2,30.5,0.1,45.7c0.1,4.5-1.5,6.7-5.3,8.6c-30.2,15.6-60.2,31.4-90.3,47.2
		c-2.5,1.3-3.1,1.2-3.1-1.8c0.1-32.2,0.1-64.4,0-96.6c0-5.1,4.6-4.9,7.3-6.3c29.7-15.9,59.5-31.5,89.3-47.3c3.7-1.9,1.8,1.3,1.8,1.8
		C508.7,400.9,508.7,417.2,508.7,433.5z"/>
	<path fill="#FE7F27" d="M205.8,484.3c0,16.2-0.1,32.3,0.1,48.5c0,2.5-0.4,3-2.7,1.8c-31.3-16.6-62.5-33-93.8-49.4
		c-1.9-1-1.9-2.2-1.9-3.9c0-32.4,0.1-64.9-0.1-97.3c0-3,0.7-2.6,2.7-1.5c31.3,16.6,62.7,33.2,94,49.7c1.6,0.8,1.8,1.9,1.8,3.5
		C205.8,451.9,205.8,468.1,205.8,484.3z"/>
	<path fill="#3F48CB" d="M309.6,380c-10-5.5-19.8-10.7-29.5-16.2c-21.1-11.9-42.2-24-63.3-36c-1-0.6-1.7-1.3-2.6-2
		c0.9-0.7,1.7-1.5,2.7-2c29.5-16.3,59.1-32.5,88.6-48.9c2.6-1.5,4.2-0.5,6.4,0.7c29.3,16.6,58.5,33.1,87.8,49.5c1.9,1,2.9,1.6,0.3,3
		c-27.4,15.3-54.8,30.6-82.1,46C315.3,375.6,312.9,377.6,309.6,380z"/>
	<path fill="#22B04C" d="M406.8,487.3c0,14.4-0.4,28.9,0.2,43.3c0.2,6-1.9,8.9-6.9,11.5c-29.3,15-58.3,30.4-87.4,45.7
		c-1.8,1-1.9,0-1.9-1.2c-0.1-17.3-0.5-34.6,0.8-51.9c0.9-12.3,1.5-25-0.5-37.1c-2.4-14.6,9.1-15.5,16.7-19.6
		c25.3-13.9,50.9-27.1,76.5-40.6c2.2-1.2,2.6-0.9,2.6,1.6C406.8,454.9,406.8,471.1,406.8,487.3z"/>
	<path fill="#FEF100" d="M209.3,486.4c0-16.2,0.1-32.3-0.1-48.5c0-2.6,0.4-2.6,2.5-1.5c30,16,60,32,90.1,47.8c4.7,2.5,3,6.9,3,9.8
		c0.3,30.4,0.2,60.9,0.1,91.3c0,1.4,0.8,3-1.9,1.5c-28.7-15.1-57.4-30.2-86.3-45c-5.5-2.8-8.1-5.8-7.8-12.5
		C209.8,515,209.3,500.7,209.3,486.4z"/>
	<path fill="#22B04C" d="M406.8,381.2c0,14.6-0.3,29.3,0.1,43.9c0.1,5.1-1.4,7.6-5.8,10c-27,14.1-54,28.2-80.7,42.9
		c-7.9,4.4-9.6,3.5-9.4-5.6c0.6-28.6,0.4-57.2,0.6-85.8c0.1-6.1,5.8-6.5,9.4-8.6c27.7-15.7,55.4-31.1,83-46.7c3.1-1.7,2.6,0,2.6,1.8
		C406.8,349.1,406.8,365.2,406.8,381.2z"/>
	<path fill="#FE7F27" d="M304.2,387.3c0,17.7-0.1,35.5,0,53.2c0.1,12.6,0.4,25.2,0.8,37.8c0.1,2.8-0.3,3.4-3.1,1.9
		c-30.3-16.2-60.7-32.1-90.9-48.2c-0.9-0.5-1.6-2.1-1.6-3.2c-0.1-32.2-0.1-64.5-0.1-96.7c0-1.6-1.3-3.7,2.5-1.5
		c27.4,15.9,55.2,31.2,82.9,46.7C299,379.7,304.5,380.9,304.2,387.3z"/>
	<path fill="#22B04C" d="M406.8,591.1c0,11.6-1,23.2,0.3,34.6c1.2,10.7-3.5,15.9-12,20.6c-27.4,15-54.5,30.6-81.9,45.7
		c-5.6,3.1-3.9-2.2-3.8-4.5c0.2-15.9,0.7-31.7,0.9-47.6c0.2-14.4,0.4-28.8,0.2-43.2c-0.1-5.5,4.2-6.1,7.3-7.8
		c28.6-15,57.3-29.9,85.9-44.9c2.3-1.2,3.2-1.3,3.1,1.9C406.8,560.8,406.8,576,406.8,591.1z"/>
	<path fill="#FEF100" d="M306.3,591.5c0,26.1,0,49.8,0,73.3c0,8.1,0.1,16.3,0.1,24.4c0,1.9-0.3,3.8-2.9,2.4
		c-30.8-17.5-61.5-35-92.3-52.4c-1.6-0.9-1.9-1.9-1.9-3.5c0.1-30.4,0.1-60.7-0.1-91.2c0-3.7,1.6-2.1,3-1.4
		c30.4,15.9,60.7,31.8,91,47.7C304.6,591.5,306,592.1,306.3,591.5z"/>
	<path fill="#FE7F27" d="M205.8,587.5c0,15.1-0.1,30.2,0.1,45.3c0,2.5-0.6,3.1-2.8,1.8c-31.5-17.9-63-35.8-94.5-53.7
		c-0.7-0.4-1.1-1.9-1.1-2.9c-0.1-29,0-57.9-0.1-86.9c0-2.3,0.3-2.7,2.5-1.5c31.4,16.5,62.8,32.9,94.3,49.2c1.8,1,1.7,2.2,1.7,3.7
		C205.8,557.4,205.8,572.5,205.8,587.5z"/>
	<path fill="#22B04C" d="M410.3,588.2c0-11.2,0.9-22.5-0.3-33.5c-1.1-10.8,2.7-16.3,12.4-21c27.9-13.7,55.2-28.4,82.7-42.8
		c2.8-1.5,3.6-1.6,3.6,2.1c-0.1,24.5-1.1,49,0.3,73.4c0.8,12.8-4.9,18-14.6,23.3c-26.7,14.6-53,29.8-79.5,44.7
		c-1.3,0.8-2.9,1-4.4,1.6c-0.1-1.3-0.3-2.7-0.3-4C410.3,617.3,410.3,602.8,410.3,588.2z"/>
	<path fill="#FEFEFE" d="M489.3,169.7c-3.5,2.1-6.7,4.1-10,5.9c-22.9,12.5-45.5,25.4-68.8,37.1c-2.8,1.5-9.1-3.4-13.5-5.8
		c-27.7-15.1-55.3-30.4-82.9-45.6c-0.8-0.4-1.4-0.9-2.1-1.4c0.6-0.5,1.1-1,1.8-1.3c26-14,51.8-28.2,78.1-41.9
		c4.6-2.4,8.4,2.7,12.1,4.7c28.1,15.4,55.9,31.3,83.7,47C488.1,168.6,488.6,169.2,489.3,169.7z"/>
	<path fill="#3F48CB" d="M222.9,115.2c8,4.4,16.4,8.9,24.7,13.5c18.1,10,36.2,20,54.3,29.9c1.7,0.9,2,1.4,0.1,2.4
		c-31,16.6-61.6,33.7-93,49.5c-6.9,3.5-13.2-4.9-19.4-8.1c-19.3-10.3-38.3-21.4-57.3-32.2c-0.9-0.5-1.5-1.3-2.3-2
		c0.8-0.8,1.5-1.7,2.4-2.1c19.9-11.4,39.9-22.9,59.8-34.2C202.3,126,212.5,120.7,222.9,115.2z"/>
	<path fill="#3F48CB" d="M583.7,224.1c-5.1,2.8-9.3,5.3-13.5,7.5c-5.8,3-14.3,4.2-17.5,7.6c-9.4,9.8-22.7,12.4-32.2,20.9
		c-12.6,11.3-22.5,2.1-32.6-3.5c-23.1-12.5-46-25.2-69-38c-1.7-0.9-3.1-2.1-4.7-3.2c1.5-0.9,3.1-1.9,4.6-2.7
		c23.8-13.2,47.6-26.7,71.7-39.4c6.2-3.3,10.5,3.5,15.4,6.2c20.2,11.1,40.2,22.8,60.3,34.3C571.6,217.1,577.2,220.4,583.7,224.1z"/>
	<path fill="#3F48CB" d="M202.7,214.1c-4.2,2.4-8,4.5-11.9,6.6c-27.1,14.5-54,29.3-81.4,43.1c-6.4,3.3-11.4-3.9-16.8-6.7
		c-8.7-4.5-17.7-9.1-25.4-15c-9.7-7.3-21.6-10.1-31.5-16.6c-2.7-1.8-2.4-2.8-0.1-4.1c18.2-10.1,36.6-20.1,54.8-30.4
		c10.5-6,20.7-12.3,30.8-18.9c3.1-2,5.1-1.5,8,0.2c23.8,13.5,47.6,26.9,71.5,40.3C201.3,213,201.9,213.5,202.7,214.1z"/>
	<path fill="#22B04C" d="M512.2,322.7c0-12.5,1.5-25.2-0.4-37.4c-2.1-13.6,5.2-18.9,15-24.3c19-10.5,37.6-21.7,56.5-32.5
		c0.8-0.4,1.7-0.6,2.5-0.8c0.2,1,0.6,1.9,0.6,2.9c-0.1,23.8-0.4,47.8-0.6,71.6c-0.1,10.3-0.1,20.7,0.1,31c0.1,3.9-2.5,5-5,6.3
		c-22.3,11.9-44.5,23.7-66.8,35.5c-3,1.6-1.9-1.2-1.9-2.1C512.2,356.2,512.2,339.4,512.2,322.7z"/>
	<path fill="#FE7F27" d="M104,323c0,15.9-0.1,31.9,0.1,47.8c0.1,4.7-0.9,4-4.2,2.2c-22.3-12.1-45.1-23.4-67-36.1
		c-6.1-3.5-2.3-12.1-2.4-18.1c-0.7-24-0.5-48-0.6-72c0-1.1,0.3-2.2,0.3-3.4c0.1-5.5,0.3-11,0.4-16.5c5.7,3.3,11.4,6.5,17.1,9.8
		c14.8,8.5,29.7,17.1,44.6,25.5c7.3,4.1,13.1,7.9,12,18.5C102.9,294.8,104,308.9,104,323z"/>
	<path fill="#FEF100" d="M104,430.5c0,16.3-0.1,32.6,0.1,48.8c0,2.6-0.3,3.2-2.8,1.8c-22.5-11.9-45.3-23.4-67.4-35.9
		c-5.3-3-2.3-10.4-2.4-15.7c-0.6-28.8-0.6-57.7-0.9-86.6c0-1.9,0.1-2.6,2.1-1.5c23.4,12.4,46.7,24.8,70.1,37.2
		c1.8,1,1.2,2.2,1.2,3.5C104,398.2,104,414.3,104,430.5z"/>
	<path fill="#EC1C24" d="M512.2,431.3c0-15.8,0.3-31.7-0.2-47.5c-0.2-5.8,4.2-6,7.1-7.6c21.1-11.5,42.5-22.6,63.8-33.8
		c1.2-0.6,2.9-2.4,2.8,1.2c-0.6,33.1-1,66.3-1.4,99.5c-0.1,4.4-4.1,4.3-6.4,5.5c-20.9,11.2-42,22.1-63,33.1c-2.8,1.5-2.8,0.2-2.8-2
		C512.3,463.6,512.2,447.4,512.2,431.3z"/>
	<path fill="#3F48CB" d="M389.6,113.7c-4.1,2.3-7.9,4.5-11.9,6.6c-22.3,12-44.4,24.4-67.1,35.8c-7.1,3.6-12.7-4-18.4-7
		c-20.4-10.6-40.3-22-60.4-33.1c-1.7-0.9-3.3-2-4.9-3c1.5-1,2.9-2.1,4.4-3c24.7-14.4,49.3-29,74.1-43.1c5.1-2.9,8.5,3.3,12.3,5.3
		c23.8,13.2,47.1,27,70.7,40.7C388.7,113,389,113.3,389.6,113.7z"/>
	<path fill="#FEF100" d="M104,532.3c0,13.9,0,27.9,0,41.9c0,1.2-0.3,2.4-0.4,3.6c-2.4-1.2-4.9-2.2-7.3-3.5
		C77,563.3,58,552,38.5,541.6c-3.7-1.9-0.3-4.2-2.3-5.8c-8.8-6.9-3.7-16.7-4.2-25c-1.1-19.7-0.3-39.4-0.3-59.2
		c0-1.6-0.6-3.3,2.1-1.9c22.7,11.9,45.5,23.8,68.3,35.6c1.8,0.9,1.7,2.1,1.7,3.6C104,503.4,104,517.9,104,532.3z"/>
	<path fill="#22B04C" d="M512.2,532.7c0-11.6,1.3-23.5-0.3-34.9c-1.7-12.1,6.8-14.1,13.9-17.8c18.6-9.9,37.5-19.5,56.2-29.3
		c1.6-0.8,2.4-1.7,2.4,1.2c-0.1,26.3-0.1,52.5,0.1,78.7c0.1,4.2-3.9,4-5.1,6.3c-7,13.2-22.2,14.3-32.7,22.4
		c-9.6,7.3-21.1,12.2-31.7,18.3c-2.3,1.3-2.8,1.2-2.8-1.6C512.3,561.5,512.2,547.1,512.2,532.7z"/>
</g>
</svg>
